<?xml version="1.0" encoding="UTF-8" standalone="no"?>
<!-- Created with Inkscape (http://www.inkscape.org/) -->

<svg
   xmlns:dc="http://purl.org/dc/elements/1.1/"
   xmlns:cc="http://creativecommons.org/ns#"
   xmlns:rdf="http://www.w3.org/1999/02/22-rdf-syntax-ns#"
   xmlns:svg="http://www.w3.org/2000/svg"
   xmlns="http://www.w3.org/2000/svg"
   xmlns:sodipodi="http://sodipodi.sourceforge.net/DTD/sodipodi-0.dtd"
   xmlns:inkscape="http://www.inkscape.org/namespaces/inkscape"
   width="32"
   height="432"
   id="svg6941"
   version="1.1"
   inkscape:version="0.48.2 r9819"
   sodipodi:docname="icons32.svg"
   inkscape:export-filename="D:\cee\workspace\cee\cee-news-html-prototype\src\main\resources\images\icons24.png"
   inkscape:export-xdpi="67.5"
   inkscape:export-ydpi="67.5">
  <defs
     id="defs6943" />
  <sodipodi:namedview
     id="base"
     pagecolor="#ffffff"
     bordercolor="#666666"
     borderopacity="1.0"
     inkscape:pageopacity="0.0"
     inkscape:pageshadow="2"
     inkscape:zoom="16"
     inkscape:cx="17.533237"
     inkscape:cy="409.55996"
     inkscape:current-layer="layer1"
     showgrid="true"
     inkscape:grid-bbox="true"
     inkscape:document-units="px"
     showguides="true"
     inkscape:guide-bbox="true"
     inkscape:window-width="1366"
     inkscape:window-height="716"
     inkscape:window-x="-8"
     inkscape:window-y="-8"
     inkscape:window-maximized="1"
     objecttolerance="3"
     gridtolerance="3"
     guidetolerance="3"
     inkscape:snap-global="true">
    <inkscape:grid
       type="xygrid"
       id="grid6955"
       empspacing="5"
       visible="true"
       enabled="true"
       snapvisiblegridlinesonly="true" />
    <sodipodi:guide
       orientation="0,1"
       position="14.5,0"
       id="guide3913" />
    <sodipodi:guide
       orientation="0,1"
       position="21.411335,40.014625"
       id="guide3915" />
    <sodipodi:guide
       orientation="0,1"
       position="25.330896,79.97075"
       id="guide3016" />
    <sodipodi:guide
       orientation="0,1"
       position="30.49398,112"
       id="guide3997" />
    <sodipodi:guide
       orientation="0,1"
       position="31,144"
       id="guide3999" />
    <sodipodi:guide
       orientation="0,1"
       position="26,176"
       id="guide4001" />
    <sodipodi:guide
       orientation="0,1"
       position="35,208"
       id="guide4003" />
    <sodipodi:guide
       orientation="0,1"
       position="30,240.59308"
       id="guide4005" />
    <sodipodi:guide
       orientation="0,1"
       position="31,272"
       id="guide4007" />
    <sodipodi:guide
       orientation="0,1"
       position="32.526912,304"
       id="guide4009" />
    <sodipodi:guide
       orientation="0,1"
       position="34,336"
       id="guide4011" />
    <sodipodi:guide
       orientation="0,1"
       position="29,368"
       id="guide4013" />
    <sodipodi:guide
       orientation="0,1"
       position="26.604893,400"
       id="guide4015" />
  </sodipodi:namedview>
  <metadata
     id="metadata6946">
    <rdf:RDF>
      <cc:Work
         rdf:about="">
        <dc:format>image/svg+xml</dc:format>
        <dc:type
           rdf:resource="http://purl.org/dc/dcmitype/StillImage" />
        <dc:title></dc:title>
      </cc:Work>
    </rdf:RDF>
  </metadata>
  <g
     id="layer1"
     inkscape:label="Layer 1"
     inkscape:groupmode="layer"
     transform="translate(0,400)">
    <g
       id="g3883"
       transform="matrix(0,1,1,0,318.20656,-396.20656)">
      <path
         d="m 21.665722,-301.13047 0,-11.77224 -12.1539419,0 0,4.52577 -3.9360501,0 0,7.24647 -1.3415442,1.56278 0,-10.4874 3.8165171,-4.41145 14.9565631,0 0,14.89885 -7.939604,-0.0362 1.558998,-1.52152 z"
         style="fill:#4d4d4d;fill-opacity:1;fill-rule:evenodd;stroke:none"
         id="path382"
         inkscape:connector-curvature="0"
         sodipodi:nodetypes="cccccccccccccc" />
      <path
         d="m 9.7931,-314.46612 2.25405,-2.60533 14.956564,0 0,14.89884 -3.996884,0 0,-1.56382 2.65534,0 0,-11.77224 -12.153942,0 0,1.04255 -3.715128,0 z"
         style="fill:#4d4d4d;fill-opacity:1;fill-rule:evenodd;stroke:none"
         id="path386"
         inkscape:connector-curvature="0" />
      <path
         d="m 15.36782,-307.01393 c 0.230528,-0.22655 0.608337,-0.22655 0.839933,0 0.230527,0.22655 0.230527,0.59784 0,0.82544 l -8.2413721,8.09813 c -0.2305279,0.2276 -0.6083374,0.2276 -0.8399326,0 -0.2305279,-0.22655 -0.2305279,-0.59784 0,-0.82439 l 8.2413717,-8.09918 z m -6.7215953,12.23478 10.5423813,-10.36049 1.563534,-5.37114 -5.464364,1.53761 -10.5423818,10.36049 3.9008305,3.83353 z"
         style="fill:#4d4d4d;fill-opacity:1;fill-rule:evenodd;stroke:none"
         id="path66"
         inkscape:connector-curvature="0" />
      <path
         d="m 3.69564,-297.57998 -2.5795643,2.53506 3.890158,3.82304 2.5795643,-2.53506 -3.890158,-3.82304 z"
         style="fill:#4d4d4d;fill-opacity:1;fill-rule:evenodd;stroke:none"
         id="path70"
         inkscape:connector-curvature="0" />
    </g>
    <g
       id="g3889"
       transform="matrix(0,1,1,0,287.98492,-365.98492)">
      <path
         d="m 21.743299,-270.90076 -0.0076,-9.47981 -12.1719145,0 0,4.84904 -3.9418705,0 0,7.76408 4.746902,-0.0343 0,1.74817 -6.0796222,0 -0.010808,-11.27598 3.8221608,-4.72655 14.9786804,0 -0.05107,11.15534 z"
         style="fill:#4d4d4d;fill-opacity:1;fill-rule:evenodd;stroke:none"
         id="path382-7"
         inkscape:connector-curvature="0"
         sodipodi:nodetypes="cccccccccccccc" />
      <path
         d="m 9.84548,-282.05565 2.257384,-3.0688 15.116745,0 0,14.25387 -1.481593,-0.007 0,-12.29527 -12.171915,0 0,1.11702 z"
         style="fill:#4d4d4d;fill-opacity:1;fill-rule:evenodd;stroke:none"
         id="path386-1"
         inkscape:connector-curvature="0"
         sodipodi:nodetypes="ccccccccc" />
      <path
         d="m 17.00097,-269.45115 -5.656407,0 0,4.25457 5.656407,0 0,5.84918 4.102258,0 0,-5.84918 5.657567,0 0,-4.25457 -5.657567,0 0,-5.83795 -4.102258,0 0,5.83795 z"
         style="fill:#4d4d4d;fill-opacity:1;fill-rule:evenodd;stroke:none"
         id="path398-3"
         inkscape:connector-curvature="0" />
    </g>
    <g
       id="g3894"
       transform="matrix(0,1,1,0,255.77612,-333.77612)">
      <path
         d="m 23.027851,-235.11559 -9.401798,0 m -0.795495,0.0442 -8.6063028,-0.0442 0,-10.7335 3.8227207,-4.51496 14.9808751,0 0.0625,7.31096 -1.317836,1.49273 -0.08838,-7.20317 -12.1736984,0 0,4.63197 -3.9424566,0 0,7.41652 5.703219,0.0701 z"
         style="fill:#4d4d4d;fill-opacity:1;fill-rule:evenodd;stroke:none"
         id="path382-7-1"
         inkscape:connector-curvature="0"
         sodipodi:nodetypes="cccccccccccccccc" />
      <path
         d="m 9.79219,-250.36361 2.257714,-2.66647 14.980875,0 0,13.49846 -1.328099,-1.35052 -0.01563,-10.54849 -12.173698,0 0,1.06702 z"
         style="fill:#4d4d4d;fill-opacity:1;fill-rule:evenodd;stroke:none"
         id="path386-1-8"
         inkscape:connector-curvature="0"
         sodipodi:nodetypes="ccccccccc" />
      <path
         d="m 15.9802,-234.27036 -4.039726,4.05659 2.933318,2.94664 4.040795,-4.05659 4.044003,4.05659 2.933318,-2.94664 -4.039727,-4.05659 4.039727,-4.06089 -2.933318,-2.94557 -4.044003,4.0566 -4.040795,-4.0566 -2.933318,2.94557 4.039726,4.06089 z"
         style="fill:#4d4d4d;fill-opacity:1;fill-rule:evenodd;stroke:none"
         id="path228-2"
         inkscape:connector-curvature="0" />
    </g>
    <path
       inkscape:connector-curvature="0"
       id="path132"
       style="fill:#4d4d4d;fill-opacity:1;fill-rule:evenodd;stroke:none"
       d="m 5.4033923,-291.46119 c 0,-4.22214 3.5369915,-7.64674 7.8986457,-7.64674 4.360701,0 7.897692,3.4246 7.897692,7.64674 0,1.88399 -0.703586,3.60737 -1.870507,4.94121 l 6.112036,5.91783 c 0.493844,0.47723 0.493844,1.25907 0,1.73723 -0.493844,0.47722 -1.301346,0.47722 -1.794237,0 l -6.253133,-6.05445 c -1.193616,0.70154 -2.594112,1.10585 -4.091851,1.10585 -4.3616542,0 -7.8986457,-3.42461 -7.8986457,-7.64767 m 2.9935723,0 c 0,2.62245 2.1965574,4.75014 4.9050734,4.75014 2.707562,0 4.904119,-2.12769 4.904119,-4.75014 0,-2.62245 -2.196557,-4.74921 -4.904119,-4.74921 -2.708516,0 -4.9050734,2.12676 -4.9050734,4.74921" />
    <path
       inkscape:connector-curvature="0"
       id="path228-2-5"
       style="fill:#4d4d4d;fill-opacity:1;fill-rule:evenodd;stroke:none"
       d="m 10.39424,-254.10727 -4.72375,4.72375 3.43,3.43125 4.725,-4.72375 4.72875,4.72375 3.43,-3.43125 -4.72375,-4.72375 4.72375,-4.72875 -3.43,-3.43 -4.72875,4.72375 -4.725,-4.72375 -3.43,3.43 4.72375,4.72875 z" />
    <path
       inkscape:connector-curvature="0"
       id="path788"
       style="fill:#4d4d4d;fill-opacity:1;fill-rule:evenodd;stroke:none"
       d="m 15.07103,-227.55669 0,-2.12193 0,-3.42439 0,-2.06715 3.986785,3.80673 -3.986785,3.80674 z m 0,-5.54632 c -0.264615,-0.0156 -0.531571,-0.0235 -0.80087,-0.0235 -6.9069145,0 -12.5094892,5.34956 -12.5094892,11.94566 0,6.59611 5.6025747,11.94567 12.5094892,11.94567 6.909257,0 12.511832,-5.34956 12.511832,-11.94567 0,-4.122 -2.188341,-7.75881 -5.517102,-9.90534 l -1.998661,2.83074 c 2.375679,1.53387 3.938779,4.12983 3.938779,7.0746 0,4.71119 -4.000835,8.53134 -8.934848,8.53134 -4.9316704,0 -8.9336767,-3.82015 -8.9336767,-8.53134 0,-4.71118 4.0020063,-8.53133 8.9336767,-8.53133 0.27047,0 0.537426,0.0123 0.80087,0.0335 l 0,-3.42439 z" />
    <g
       id="g3909"
       transform="matrix(0,1,1,0,64.683197,-142.6832)">
      <path
         d="m 4.25072,-43.68734 0,-12.164928 4.6257623,-5.117674 18.1300207,0 0,12.171048 -1.627106,0 0,-10.358751 -14.730513,0 0,5.250256 -4.7720885,0 0,8.407752 5.0389795,0 0,1.812297 -6.665055,0 z"
         style="fill:#4d4d4d;fill-opacity:1;fill-rule:evenodd;stroke:none"
         id="path394"
         inkscape:connector-curvature="0" />
      <path
         d="m 18.39798,-46.24597 -5.025583,0 0,3.861202 5.025583,0 0,5.308388 3.644759,0 0,-5.308388 5.026613,0 0,-3.861202 -5.026613,0 0,-5.298189 -3.644759,0 0,5.298189 z"
         style="fill:#4d4d4d;fill-opacity:1;fill-rule:evenodd;stroke:none"
         id="path398"
         inkscape:connector-curvature="0" />
    </g>
    <path
       style="fill:#4d4d4d;fill-opacity:1;stroke:#000000;stroke-width:0;stroke-linecap:butt;stroke-linejoin:miter;stroke-miterlimit:4;stroke-opacity:1;stroke-dasharray:none"
       d="m 21.89819,-84.94981 -15.7926,-9.26505 15.7926,-9.11133 z"
       id="path6888"
       inkscape:connector-curvature="0"
       sodipodi:nodetypes="cccc" />
    <path
       style="fill:#4d4d4d;fill-opacity:1;stroke:#000000;stroke-width:0;stroke-linecap:butt;stroke-linejoin:miter;stroke-miterlimit:4;stroke-opacity:1;stroke-dasharray:none"
       d="m 5.96611,-53.03811 15.7926,-9.26505 -15.7926,-9.11133 z"
       id="path6888-7"
       inkscape:connector-curvature="0"
       sodipodi:nodetypes="cccc" />
    <path
       style="fill:#4d4d4d;fill-opacity:1;stroke:none"
       clip-path="none"
       d="m 15,-33 -10,0 0,10 10,0 z m -2,2 0,6 -6,0 0,-6 z"
       id="path3035"
       inkscape:connector-curvature="0"
       sodipodi:nodetypes="cccccccccc" />
    <path
       style="fill:#4d4d4d;fill-opacity:1;stroke:none"
       clip-path="none"
       d="M 8,15 7,15 7,9 13,9 13,10.143845 15,8 15,7 5,7 l 0,10 5,0 z"
       id="path3035-1"
       inkscape:connector-curvature="0"
       sodipodi:nodetypes="ccccccccccc" />
    <path
       style="fill:#4d4d4d;fill-opacity:1;stroke:none"
       d="M 9.279922,12 8.793786,12.8414 14,18.1447 20.505242,4.75387 19.709747,4.17934 13.301591,13.70711 z"
       id="path3849"
       inkscape:connector-curvature="0"
       sodipodi:nodetypes="ccccccc" />
    <path
       style="fill:#4d4d4d;fill-opacity:1;stroke:none"
       clip-path="none"
       d="m 20.03125,-170.03125 -10,0 0,10 10,0 z m -2,2 0,6 -6,0 0,-6 z"
       id="path3035-4"
       inkscape:connector-curvature="0"
       sodipodi:nodetypes="cccccccccc" />
    <path
       style="fill:#4d4d4d;fill-opacity:1;stroke:none"
       clip-path="none"
       d="m 20.03125,-156.96875 -10,0 0,10 10,0 z m -2,2 0,6 -6,0 0,-6 z"
       id="path3035-4-0"
       inkscape:connector-curvature="0"
       sodipodi:nodetypes="cccccccccc" />
    <path
       style="fill:#4d4d4d;fill-opacity:1;stroke:none"
       clip-path="none"
       d="m 12.970099,-195.96712 -1,0 0,-6 6,0 0,1.14384 2,-2.14384 0,-1 -10.0000003,0 0,10 5.0000003,0 z"
       id="path3035-1-2"
       inkscape:connector-curvature="0"
       sodipodi:nodetypes="ccccccccccc" />
    <path
       style="fill:#4d4d4d;fill-opacity:1;stroke:none"
       d="m 14.250021,-198.96712 -0.486136,0.8414 5.206214,5.3033 6.505242,-13.39083 -0.795495,-0.57453 -6.408156,9.52777 z"
       id="path3849-4"
       inkscape:connector-curvature="0"
       sodipodi:nodetypes="ccccccc" />
    <path
       style="fill:#4d4d4d;fill-opacity:1;stroke:none"
       clip-path="none"
       d="m 13.028629,-182.91202 -1,0 0,-6 6,0 0,1.14384 2,-2.14384 0,-1 -10,0 0,10 5,0 z"
       id="path3035-1-2-5"
       inkscape:connector-curvature="0"
       sodipodi:nodetypes="ccccccccccc" />
    <path
       style="fill:#4d4d4d;fill-opacity:1;stroke:none"
       d="m 14.308551,-185.91202 -0.486136,0.8414 5.206214,5.3033 6.505242,-13.39083 -0.795495,-0.57453 -6.408156,9.52777 z"
       id="path3849-4-5"
       inkscape:connector-curvature="0"
       sodipodi:nodetypes="ccccccc" />
  </g>
</svg>
