<?xml version="1.0" encoding="UTF-8" standalone="no"?>
<!-- Created with Inkscape (http://www.inkscape.org/) -->

<svg
   xmlns:dc="http://purl.org/dc/elements/1.1/"
   xmlns:cc="http://creativecommons.org/ns#"
   xmlns:rdf="http://www.w3.org/1999/02/22-rdf-syntax-ns#"
   xmlns:svg="http://www.w3.org/2000/svg"
   xmlns="http://www.w3.org/2000/svg"
   xmlns:sodipodi="http://sodipodi.sourceforge.net/DTD/sodipodi-0.dtd"
   xmlns:inkscape="http://www.inkscape.org/namespaces/inkscape"
   width="24"
   height="384"
   id="svg6941"
   version="1.1"
   inkscape:version="0.48.2 r9819"
   sodipodi:docname="icons24.svg"
   inkscape:export-filename="D:\cee\workspace\cee\cee-news-html-prototype\src\main\resources\twopage\images\icons24.png"
   inkscape:export-xdpi="90"
   inkscape:export-ydpi="90">
  <defs
     id="defs6943" />
  <sodipodi:namedview
     id="base"
     pagecolor="#ffffff"
     bordercolor="#666666"
     borderopacity="1.0"
     inkscape:pageopacity="0.0"
     inkscape:pageshadow="2"
     inkscape:zoom="1"
     inkscape:cx="10.861695"
     inkscape:cy="163.90598"
     inkscape:current-layer="layer1"
     showgrid="false"
     inkscape:grid-bbox="true"
     inkscape:document-units="px"
     showguides="true"
     inkscape:guide-bbox="true"
     inkscape:window-width="1366"
     inkscape:window-height="768"
     inkscape:window-x="0"
     inkscape:window-y="0"
     inkscape:window-maximized="1"
     objecttolerance="3"
     gridtolerance="3"
     guidetolerance="3"
     inkscape:snap-global="true"
     height="384px">
    <inkscape:grid
       type="xygrid"
       id="grid6955"
       empspacing="5"
       visible="true"
       enabled="true"
       snapvisiblegridlinesonly="true" />
    <sodipodi:guide
       orientation="0,1"
       position="24,30"
       id="guide4051" />
    <sodipodi:guide
       orientation="0,1"
       position="27,60"
       id="guide4083" />
    <sodipodi:guide
       orientation="0,1"
       position="24.306796,84"
       id="guide4085" />
    <sodipodi:guide
       orientation="0,1"
       position="26.339728,108"
       id="guide4087" />
    <sodipodi:guide
       orientation="0,1"
       position="26,132"
       id="guide4089" />
    <sodipodi:guide
       orientation="0,1"
       position="27,156"
       id="guide4091" />
    <sodipodi:guide
       orientation="0,1"
       position="34,180"
       id="guide4093" />
    <sodipodi:guide
       orientation="0,1"
       position="33.499184,204"
       id="guide4095" />
    <sodipodi:guide
       orientation="0,1"
       position="24,228"
       id="guide4097" />
    <sodipodi:guide
       orientation="0,1"
       position="24,252"
       id="guide4099" />
    <sodipodi:guide
       orientation="0,1"
       position="26.339728,276"
       id="guide4101" />
    <sodipodi:guide
       orientation="0,1"
       position="32.350135,300"
       id="guide4103" />
    <sodipodi:guide
       orientation="1,0"
       position="21.802379,330.63137"
       id="guide4105" />
    <sodipodi:guide
       orientation="1,0"
       position="17,301"
       id="guide4107" />
    <sodipodi:guide
       orientation="1,0"
       position="10,296.45452"
       id="guide4109" />
    <sodipodi:guide
       orientation="1,0"
       position="7,16.670656"
       id="guide3098" />
    <sodipodi:guide
       orientation="0,1"
       position="9,96"
       id="guide3037" />
    <sodipodi:guide
       orientation="0,1"
       position="23.568849,354"
       id="guide3057" />
    <sodipodi:guide
       orientation="0,1"
       position="27,324"
       id="guide3059" />
    <sodipodi:guide
       orientation="0,1"
       position="20.375522,339"
       id="guide3082" />
    <sodipodi:guide
       orientation="0,1"
       position="20.340239,369"
       id="guide3084" />
  </sodipodi:namedview>
  <metadata
     id="metadata6946">
    <rdf:RDF>
      <cc:Work
         rdf:about="">
        <dc:format>image/svg+xml</dc:format>
        <dc:type
           rdf:resource="http://purl.org/dc/dcmitype/StillImage" />
        <dc:title></dc:title>
      </cc:Work>
    </rdf:RDF>
  </metadata>
  <g
     id="layer1"
     inkscape:label="Layer 1"
     inkscape:groupmode="layer"
     transform="translate(0,352)">
    <g
       id="g3883"
       transform="matrix(0,0.75,0.75,0,241.84525,-290.27314)">
      <path
         d="m 21.665722,-301.13047 0,-11.77224 -11.9456086,0 0,3.81744 -4.0193834,0 0,7.9548 -1.3415442,1.35445 0,-10.69574 4.0248504,-3.99478 14.6232298,0 0,14.69052 -7.939604,-0.0362 1.558998,-1.31319 z"
         style="fill:#4d4d4d;fill-opacity:1;fill-rule:evenodd;stroke:none"
         id="path382"
         inkscape:connector-curvature="0"
         sodipodi:nodetypes="cccccccccccccc" />
      <path
         d="m 9.7097667,-314.46612 2.3373833,-2.60533 14.956564,0 0,14.60717 -3.996884,0 0,-1.27215 2.738673,0 0,-12.02224 -12.237275,0 0,1.29255 z"
         style="fill:#4d4d4d;fill-opacity:1;fill-rule:evenodd;stroke:none"
         id="path386"
         inkscape:connector-curvature="0"
         sodipodi:nodetypes="ccccccccccc" />
      <path
         d="m 15.36782,-307.01393 c 0.230528,-0.22655 0.608337,-0.22655 0.839933,0 0.230527,0.22655 0.230527,0.59784 0,0.82544 l -8.2413721,8.09813 c -0.2305279,0.2276 -0.6083374,0.2276 -0.8399326,0 -0.2305279,-0.22655 -0.2305279,-0.59784 0,-0.82439 l 8.2413717,-8.09918 z m -6.7215953,12.23478 10.5423813,-10.36049 1.563534,-5.37114 -5.464364,1.53761 -10.5423818,10.36049 3.9008305,3.83353 z"
         style="fill:#4d4d4d;fill-opacity:1;fill-rule:evenodd;stroke:none"
         id="path66"
         inkscape:connector-curvature="0" />
      <path
         d="m 3.69564,-297.57998 -2.5795643,2.53506 3.890158,3.82304 2.5795643,-2.53506 -3.890158,-3.82304 z"
         style="fill:#4d4d4d;fill-opacity:1;fill-rule:evenodd;stroke:none"
         id="path70"
         inkscape:connector-curvature="0" />
    </g>
    <g
       id="g3889"
       transform="matrix(0,0.75,0.75,0,217.79866,-265.16496)">
      <path
         d="m 20.197992,-270.39821 0,-10.66667 -12,0 0.010504,4.03335 -3.9835372,0 0,8.01408 4.0385687,-0.0343 0,1.3315 -5.3296222,0 -0.047292,-10.67796 3.9780449,-4 14.6666668,0 0,12 z"
         style="fill:#4d4d4d;fill-opacity:1;fill-rule:evenodd;stroke:none"
         id="path382-7"
         inkscape:connector-curvature="0"
         sodipodi:nodetypes="cccccccccccccc" />
      <path
         d="m 8.197992,-282.39821 2.666667,-2.66667 14.688621,0 0,14.66667 -1.333333,0 0,-13.33334 -12.021955,0 0,1.33334 z"
         style="fill:#4d4d4d;fill-opacity:1;fill-rule:evenodd;stroke:none"
         id="path386-1"
         inkscape:connector-curvature="0"
         sodipodi:nodetypes="ccccccccc" />
      <path
         d="m 14.795089,-269.06488 -5.2814066,0 0.04167,4 5.2814066,0 0,5.34248 4.102258,0 0,-5.34248 5.199234,0 -0.04167,-4 -5.199234,0 0.04167,-5.34922 -4.102258,0 z"
         style="fill:#4d4d4d;fill-opacity:1;fill-rule:evenodd;stroke:none"
         id="path398-3"
         inkscape:connector-curvature="0"
         sodipodi:nodetypes="ccccccccccccc" />
    </g>
    <g
       id="g3894"
       transform="matrix(0,0.75,0.75,0,193.83026,-242.12461)">
      <path
         d="m 12.166147,-235.77368 -8.0000003,0 0,-10.66667 4,-4 14.6666663,-0.13203 0,7.10262 -1.333333,1.61773 0,-7.25498 -12,0 0,4 -4,0 0,8 5.333333,0 z"
         style="fill:#4d4d4d;fill-opacity:1;fill-rule:evenodd;stroke:none"
         id="path382-7-1"
         inkscape:connector-curvature="0"
         sodipodi:nodetypes="cccccccccccccc" />
      <path
         d="m 9.79219,-250.36361 2.257714,-2.70814 14.814208,0 0,13.54013 -1.328099,-1.35052 -0.01563,-10.84016 -12.007031,0 0,1.35869 z"
         style="fill:#4d4d4d;fill-opacity:1;fill-rule:evenodd;stroke:none"
         id="path386-1-8"
         inkscape:connector-curvature="0"
         sodipodi:nodetypes="ccccccccc" />
      <path
         d="m 16.166147,-234.44035 -4,4 2.666666,2.66667 4,-4 4,4 2.666667,-2.66667 -4,-4 4,-4 -2.666667,-2.66666 -4,4 -4,-4 -2.666666,2.66666 z"
         style="fill:#4d4d4d;fill-opacity:1;fill-rule:evenodd;stroke:none"
         id="path228-2"
         inkscape:connector-curvature="0"
         sodipodi:nodetypes="ccccccccccccc" />
    </g>
    <path
       inkscape:connector-curvature="0"
       id="path132"
       style="fill:#4d4d4d;fill-opacity:1;fill-rule:evenodd;stroke:none"
       d="m 4.017616,-208.50969 c 0,-3.02645 2.535402,-5.48121 5.6619533,-5.48121 3.1258547,0 5.6612547,2.45476 5.6612547,5.48121 0,1.35045 -0.504347,2.58578 -1.340824,3.54188 l 4.381253,4.24191 c 0.353999,0.34208 0.353999,0.9025 0,1.24525 -0.353999,0.34208 -0.932835,0.34208 -1.286152,0 l -4.482394,-4.33985 c -0.855613,0.50287 -1.859522,0.79268 -2.9331377,0.79268 -3.1265513,0 -5.6619533,-2.45477 -5.6619533,-5.48187 m 2.1458638,0 c 0,1.87978 1.5745518,3.40491 3.5160895,3.40491 1.9408457,0 3.5153907,-1.52513 3.5153907,-3.40491 0,-1.87978 -1.574545,-3.40425 -3.5153907,-3.40425 -1.9415377,0 -3.5160895,1.52447 -3.5160895,3.40425"
       inkscape:export-xdpi="90"
       inkscape:export-ydpi="90" />
    <path
       inkscape:connector-curvature="0"
       id="path228-2-5"
       style="fill:#4d4d4d;fill-opacity:1;fill-rule:evenodd;stroke:none"
       d="m 7.546081,-183.69867 -3.5428091,3.54281 2.5724985,2.57344 3.5437416,-3.54281 3.546563,3.54281 2.5725,-2.57344 -3.542813,-3.54281 3.542813,-3.54656 -2.5725,-2.57251 -3.546563,3.54282 -3.5437416,-3.54282 -2.5724985,2.57251 3.5428091,3.54656 z" />
    <path
       inkscape:connector-curvature="0"
       id="path788"
       style="fill:#4d4d4d;fill-opacity:1;fill-rule:evenodd;stroke:none"
       d="m 11.831748,-164.36493 0.02925,-1.94969 0,-2.57999 -0.02925,-2.01764 3.466241,3.29902 z m 0.02925,-4.52968 c -0.190637,-0.0117 -0.383466,-0.0316 -0.576974,-0.0176 -4.8589787,0.35101 -8.3102621,3.94268 -8.3102621,8.91226 0,4.9696 4.0362925,9.00003 9.0122731,9.00003 4.977673,0 9.013965,-4.03043 9.013965,-9.00003 0,-3.13481 -1.108551,-5.00001 -3.477457,-6.96554 l -1.439906,2.13271 c 1.711523,1.15564 2.340378,2.6142 2.340378,4.83283 0,3.54948 -2.882343,6.42764 -6.43698,6.42764 -3.5529466,0 -6.4361316,-2.87816 -6.4361316,-6.42764 0,-3.54945 2.1519236,-6.00001 5.7341206,-6.33986 0.193984,-0.0184 0.38718,0.01 0.576974,0.0252 l 0,-2.57998 z"
       sodipodi:nodetypes="cccccccssssccssssccc" />
    <g
       id="g3909"
       transform="matrix(0,0.75,0.75,0,49.737585,-98.14504)">
      <path
         d="m 4.25072,-43.68734 -0.0214,-11.962773 4.6471623,-5.319829 18.0195047,-0.0135 0,12 -1.333334,0 0,-10.666666 -14.666666,0 0,5.333333 -5.3333337,-5e-6 0,9.333338 5.3333337,0 0.01979,1.296107 z"
         style="fill:#4d4d4d;fill-opacity:1;fill-rule:evenodd;stroke:none"
         id="path394"
         inkscape:connector-curvature="0"
         sodipodi:nodetypes="cccccccccccccc" />
      <path
         d="m 18.895987,-46.31678 -5.333334,0 0,4 5.333334,2e-6 0,5.333333 4,0 0,-5.308388 5.333333,-0.02495 0,-4 -5.333333,0 0,-5.333333 -4,0.03514 z"
         style="fill:#4d4d4d;fill-opacity:1;fill-rule:evenodd;stroke:none"
         id="path398"
         inkscape:connector-curvature="0"
         sodipodi:nodetypes="ccccccccccccc" />
    </g>
    <path
       style="fill:#4d4d4d;fill-opacity:1;stroke:#000000;stroke-width:0;stroke-linecap:butt;stroke-linejoin:miter;stroke-miterlimit:4;stroke-opacity:1;stroke-dasharray:none"
       d="M 19,-58 7.11236,-64 19,-70 19,-66.826545 13.118071,-64 19,-61 z"
       id="path6888"
       inkscape:connector-curvature="0"
       sodipodi:nodetypes="ccccccc" />
    <path
       style="fill:#4d4d4d;fill-opacity:1;stroke:none"
       clip-path="none"
       d="m 14.475187,-17.992318 -7.500005,0 0,7.5 7.500005,0 z m -1.5,1.5 0,4.5 -4.500005,0 0,-4.5 z"
       id="path3035"
       inkscape:connector-curvature="0"
       sodipodi:nodetypes="cccccccccc"
       inkscape:export-xdpi="90"
       inkscape:export-ydpi="90" />
    <path
       style="fill:#4d4d4d;fill-opacity:1;stroke:none"
       clip-path="none"
       d="m 9.2665484,18.049048 -0.75,0 0,-4.5 4.5000046,0 0,0.857884 1.5,-1.607884 0,-0.75 -7.5000046,0 0,7.5 3.7500046,0 z"
       id="path3035-1"
       inkscape:connector-curvature="0"
       sodipodi:nodetypes="ccccccccccc" />
    <path
       style="fill:#4d4d4d;fill-opacity:1;stroke:none"
       d="M 10.226494,15.799048 9.8618904,16.430098 13.766553,20.407573 18.645484,10.364451 18.048863,9.9335522 13.242746,17.07938 z"
       id="path3849"
       inkscape:connector-curvature="0"
       sodipodi:nodetypes="ccccccc" />
    <path
       style="fill:#4d4d4d;fill-opacity:1;stroke:none"
       clip-path="none"
       d="m 17.53097,-118.93125 -7.499992,0 0,7.5 7.499992,0 z m -1.5,1.5 0,4.5 -4.5,0 0,-4.5 z"
       id="path3035-4"
       inkscape:connector-curvature="0"
       sodipodi:nodetypes="cccccccccc" />
    <path
       style="fill:#4d4d4d;fill-opacity:1;stroke:none"
       clip-path="none"
       d="m 17.53097,-109.01026 -7.499992,0 0,7.5 7.499992,0 z m -1.5,1.5 0,4.5 -4.5,0 0,-4.5 z"
       id="path3035-4-0"
       inkscape:connector-curvature="0"
       sodipodi:nodetypes="cccccccccc"
       inkscape:export-xdpi="90"
       inkscape:export-ydpi="90" />
    <path
       style="fill:#4d4d4d;fill-opacity:1;stroke:none"
       clip-path="none"
       d="m 12.276473,-136.99081 -0.75,0 0,-4.5 4.5,0 0,0.85788 1.5,-1.60788 0,-0.75 -7.499992,0 0,7.5 3.749992,0 z"
       id="path3035-1-2"
       inkscape:connector-curvature="0"
       sodipodi:nodetypes="ccccccccccc" />
    <path
       style="fill:#4d4d4d;fill-opacity:1;stroke:none"
       d="m 13.277781,-139.36492 -0.364602,0.63105 3.90466,3.97748 4.878932,-10.04313 -0.596622,-0.43089 -4.806117,7.14582 z"
       id="path3849-4"
       inkscape:connector-curvature="0"
       sodipodi:nodetypes="ccccccc" />
    <path
       style="fill:#4d4d4d;fill-opacity:1;stroke:none"
       clip-path="none"
       d="m 12.241885,-127.01509 -0.75,0 0,-4.5 4.5,0 0,0.85788 1.5,-1.60788 0,-0.75 -7.4999874,0 0,7.5 3.7499874,0 z"
       id="path3035-1-2-1"
       inkscape:connector-curvature="0"
       sodipodi:nodetypes="ccccccccccc" />
    <path
       style="fill:#4d4d4d;fill-opacity:1;stroke:none"
       d="m 13.243193,-129.3892 -0.364602,0.63105 3.90466,3.97748 4.878932,-10.04313 -0.596622,-0.43089 -4.806117,7.14582 z"
       id="path3849-4-7"
       inkscape:connector-curvature="0"
       sodipodi:nodetypes="ccccccc" />
    <path
       style="fill:#4d4d4d;fill-opacity:1;stroke:#000000;stroke-width:0;stroke-linecap:butt;stroke-linejoin:miter;stroke-miterlimit:4;stroke-opacity:1;stroke-dasharray:none"
       d="m 7.01861,-46.002292 11.88764,6 -11.88764,6 0,-3.17346 5.881929,-2.82654 -5.881929,-3 z"
       id="path6888-1"
       inkscape:connector-curvature="0"
       sodipodi:nodetypes="ccccccc" />
    <path
       style="fill:#4d4d4d;fill-opacity:1;stroke:#000000;stroke-width:0;stroke-linecap:butt;stroke-linejoin:miter;stroke-miterlimit:4;stroke-opacity:1;stroke-dasharray:none"
       d="m 19,-330.96864 -11.88764,-6 11.88764,-6 0,3.17346 -5.881929,2.82654 5.881929,3 z"
       id="path6888-9"
       inkscape:connector-curvature="0"
       sodipodi:nodetypes="ccccccc" />
    <path
       style="fill:#4d4d4d;fill-opacity:1;stroke:#000000;stroke-width:0;stroke-linecap:butt;stroke-linejoin:miter;stroke-miterlimit:4;stroke-opacity:1;stroke-dasharray:none"
       d="m 7.01861,-312.97503 11.88764,6 -11.88764,6 0,-3.17346 5.881929,-2.82654 -5.881929,-3 z"
       id="path6888-1-9"
       inkscape:connector-curvature="0"
       sodipodi:nodetypes="ccccccc" />
  </g>
</svg>
